<svg xmlns="http://www.w3.org/2000/svg" xmlns:xlink="http://www.w3.org/1999/xlink" width="50" zoomAndPan="magnify" viewBox="0 0 37.5 37.499999" height="50" preserveAspectRatio="xMidYMid meet" version="1.0"><defs><clipPath id="0877a671c5"><path d="M 2.0625 2.0625 L 34.628906 2.0625 L 34.628906 34.628906 L 2.0625 34.628906 Z M 2.0625 2.0625 " clip-rule="nonzero"/></clipPath></defs><g clip-path="url(#0877a671c5)"><path fill="#a6a6a6" d="M 18.5 34.941406 C 17.960938 34.941406 17.425781 34.914062 16.890625 34.859375 C 16.355469 34.808594 15.820312 34.730469 15.292969 34.625 C 14.765625 34.519531 14.246094 34.386719 13.730469 34.230469 C 13.214844 34.074219 12.707031 33.894531 12.210938 33.6875 C 11.710938 33.484375 11.226562 33.253906 10.75 33 C 10.277344 32.746094 9.816406 32.46875 9.367188 32.167969 C 8.921875 31.871094 8.488281 31.550781 8.070312 31.207031 C 7.65625 30.867188 7.257812 30.507812 6.875 30.125 C 6.496094 29.746094 6.136719 29.347656 5.792969 28.929688 C 5.453125 28.511719 5.132812 28.082031 4.832031 27.632812 C 4.535156 27.1875 4.257812 26.726562 4.003906 26.25 C 3.75 25.777344 3.519531 25.289062 3.3125 24.792969 C 3.105469 24.292969 2.925781 23.789062 2.769531 23.273438 C 2.613281 22.757812 2.484375 22.234375 2.378906 21.707031 C 2.273438 21.179688 2.195312 20.648438 2.140625 20.113281 C 2.089844 19.578125 2.0625 19.039062 2.0625 18.5 C 2.0625 17.960938 2.089844 17.425781 2.140625 16.890625 C 2.195312 16.355469 2.273438 15.820312 2.378906 15.292969 C 2.484375 14.765625 2.613281 14.246094 2.769531 13.730469 C 2.925781 13.214844 3.105469 12.707031 3.3125 12.210938 C 3.519531 11.710938 3.75 11.226562 4.003906 10.75 C 4.257812 10.277344 4.535156 9.816406 4.832031 9.367188 C 5.132812 8.921875 5.453125 8.488281 5.792969 8.070312 C 6.136719 7.65625 6.496094 7.257812 6.875 6.875 C 7.257812 6.496094 7.65625 6.136719 8.070312 5.792969 C 8.488281 5.453125 8.921875 5.132812 9.367188 4.832031 C 9.816406 4.535156 10.277344 4.257812 10.75 4.003906 C 11.226562 3.75 11.710938 3.519531 12.210938 3.3125 C 12.707031 3.105469 13.214844 2.925781 13.730469 2.769531 C 14.246094 2.613281 14.765625 2.484375 15.292969 2.378906 C 15.820312 2.273438 16.355469 2.195312 16.890625 2.140625 C 17.425781 2.089844 17.960938 2.0625 18.5 2.0625 C 19.039062 2.0625 19.578125 2.089844 20.113281 2.140625 C 20.648438 2.195312 21.179688 2.273438 21.707031 2.378906 C 22.234375 2.484375 22.757812 2.613281 23.273438 2.769531 C 23.789062 2.925781 24.292969 3.105469 24.792969 3.3125 C 25.289062 3.519531 25.777344 3.75 26.25 4.003906 C 26.726562 4.257812 27.1875 4.535156 27.632812 4.832031 C 28.082031 5.132812 28.511719 5.453125 28.929688 5.792969 C 29.347656 6.136719 29.746094 6.496094 30.125 6.875 C 30.507812 7.257812 30.867188 7.65625 31.207031 8.070312 C 31.550781 8.488281 31.871094 8.921875 32.167969 9.367188 C 32.46875 9.816406 32.746094 10.277344 33 10.75 C 33.253906 11.226562 33.484375 11.710938 33.6875 12.210938 C 33.894531 12.707031 34.074219 13.214844 34.230469 13.730469 C 34.386719 14.246094 34.519531 14.765625 34.625 15.292969 C 34.730469 15.820312 34.808594 16.355469 34.859375 16.890625 C 34.914062 17.425781 34.941406 17.960938 34.941406 18.5 C 34.9375 19.039062 34.914062 19.574219 34.859375 20.113281 C 34.804688 20.648438 34.726562 21.179688 34.621094 21.707031 C 34.515625 22.234375 34.382812 22.757812 34.226562 23.269531 C 34.070312 23.785156 33.890625 24.292969 33.683594 24.789062 C 33.476562 25.285156 33.246094 25.773438 32.992188 26.246094 C 32.738281 26.722656 32.460938 27.183594 32.164062 27.628906 C 31.863281 28.078125 31.542969 28.507812 31.203125 28.925781 C 30.859375 29.339844 30.5 29.738281 30.121094 30.121094 C 29.738281 30.5 29.339844 30.859375 28.925781 31.203125 C 28.507812 31.542969 28.078125 31.863281 27.628906 32.164062 C 27.183594 32.460938 26.722656 32.738281 26.246094 32.992188 C 25.773438 33.246094 25.285156 33.476562 24.789062 33.683594 C 24.292969 33.890625 23.785156 34.070312 23.269531 34.226562 C 22.757812 34.382812 22.234375 34.515625 21.707031 34.621094 C 21.179688 34.726562 20.648438 34.804688 20.113281 34.859375 C 19.574219 34.914062 19.039062 34.9375 18.5 34.941406 Z M 18.5 3.792969 C 17.535156 3.792969 16.578125 3.886719 15.632812 4.074219 C 14.683594 4.261719 13.765625 4.542969 12.871094 4.910156 C 11.980469 5.28125 11.132812 5.734375 10.328125 6.269531 C 9.527344 6.808594 8.785156 7.417969 8.101562 8.101562 C 7.417969 8.785156 6.808594 9.527344 6.269531 10.328125 C 5.734375 11.132812 5.28125 11.980469 4.910156 12.871094 C 4.542969 13.765625 4.261719 14.683594 4.074219 15.632812 C 3.886719 16.578125 3.792969 17.535156 3.792969 18.5 C 3.792969 19.46875 3.886719 20.421875 4.074219 21.371094 C 4.261719 22.316406 4.542969 23.238281 4.910156 24.128906 C 5.28125 25.023438 5.734375 25.871094 6.269531 26.671875 C 6.808594 27.476562 7.417969 28.21875 8.101562 28.902344 C 8.785156 29.585938 9.527344 30.195312 10.328125 30.730469 C 11.132812 31.265625 11.980469 31.71875 12.871094 32.089844 C 13.765625 32.460938 14.683594 32.738281 15.632812 32.925781 C 16.578125 33.117188 17.535156 33.210938 18.5 33.210938 C 19.46875 33.210938 20.421875 33.117188 21.371094 32.925781 C 22.316406 32.738281 23.238281 32.460938 24.128906 32.089844 C 25.023438 31.71875 25.871094 31.265625 26.671875 30.730469 C 27.476562 30.195312 28.21875 29.585938 28.902344 28.902344 C 29.585938 28.21875 30.195312 27.476562 30.730469 26.671875 C 31.265625 25.871094 31.71875 25.023438 32.089844 24.128906 C 32.460938 23.238281 32.738281 22.316406 32.925781 21.371094 C 33.117188 20.421875 33.210938 19.46875 33.210938 18.5 C 33.207031 17.535156 33.113281 16.578125 32.925781 15.632812 C 32.734375 14.6875 32.457031 13.765625 32.085938 12.875 C 31.714844 11.984375 31.261719 11.136719 30.726562 10.332031 C 30.1875 9.53125 29.578125 8.789062 28.898438 8.105469 C 28.214844 7.421875 27.472656 6.8125 26.667969 6.277344 C 25.867188 5.738281 25.019531 5.285156 24.128906 4.917969 C 23.234375 4.546875 22.316406 4.265625 21.371094 4.078125 C 20.421875 3.890625 19.464844 3.792969 18.5 3.792969 Z M 24.050781 24.929688 C 23.8125 24.929688 23.605469 24.84375 23.4375 24.671875 L 18.5 19.726562 L 13.5625 24.671875 C 13.394531 24.84375 13.191406 24.925781 12.953125 24.925781 C 12.714844 24.925781 12.507812 24.84375 12.339844 24.675781 C 12.171875 24.503906 12.085938 24.300781 12.085938 24.0625 C 12.085938 23.824219 12.171875 23.621094 12.339844 23.449219 L 17.277344 18.5 L 12.339844 13.550781 C 12.171875 13.382812 12.085938 13.179688 12.085938 12.941406 C 12.085938 12.699219 12.171875 12.496094 12.339844 12.328125 C 12.507812 12.160156 12.714844 12.074219 12.953125 12.074219 C 13.191406 12.074219 13.394531 12.160156 13.5625 12.328125 L 18.5 17.277344 L 23.4375 12.328125 C 23.605469 12.160156 23.8125 12.074219 24.050781 12.074219 C 24.289062 12.074219 24.492188 12.160156 24.664062 12.328125 C 24.832031 12.496094 24.917969 12.699219 24.917969 12.941406 C 24.917969 13.179688 24.832031 13.382812 24.664062 13.550781 L 19.722656 18.5 L 24.664062 23.449219 C 24.789062 23.574219 24.867188 23.722656 24.902344 23.894531 C 24.933594 24.066406 24.917969 24.230469 24.851562 24.394531 C 24.785156 24.554688 24.679688 24.683594 24.53125 24.78125 C 24.386719 24.878906 24.226562 24.929688 24.050781 24.929688 Z M 24.050781 24.929688 " fill-opacity="1" fill-rule="nonzero"/></g></svg>